# xmcd
#
# Track frame offsets: 
#        150
#        14058
#        39415
#        56003
#        74635
#        88574
#        121112
#        140428
#        163013
#        179310
#        205893
#        214478
#        240642
#        247635
#        256881
#        283906
#
# Disc length: 3901 seconds
#
# Revision: 1
# Processed by: cddbd v1.5.2PL0 Copyright (c) Steve Scherf et al.
# Submitted via: ExactAudioCopy v0.99pb5
#
DISCID=ec0f3b10
DTITLE=Asheru and Blue Black of The Unspoken Heard - 48 Months
DYEAR=2003
DGENRE=Hip-Hop
TTITLE0=Mid Atlantic
TTITLE1=Better
TTITLE2=Nigga Like Me
TTITLE3=Setting Sun
TTITLE4=How You Livin? f/J-Live, Grap Luva and Sondia
TTITLE5=Trackrunners f/J-Live and Grap Luva
TTITLE6=The Music
TTITLE7=Smiley (The Woh, Woh, Song)
TTITLE8=It's About Time
TTITLE9=Dream Birth
TTITLE10=SoulJamboree
TTITLE11=Jamboree
TTITLE12=General Blackman Isgod
TTITLE13=Black Moses
TTITLE14=Smiley (The Woh, Woh, Song) Soul Dub Version
TTITLE15=(untitled)
EXTD=
EXTT0=
EXTT1=
EXTT2=
EXTT3=
EXTT4=
EXTT5=
EXTT6=
EXTT7=
EXTT8=
EXTT9=
EXTT10=
EXTT11=
EXTT12=
EXTT13=
EXTT14=
EXTT15=
PLAYORDER=
